<svg width="45" height="45" viewBox="0 0 45 45" fill="none" xmlns="http://www.w3.org/2000/svg">
<path d="M34.7961 32.0396L34.5624 17.7857C34.4106 16.4316 33.6698 14.6146 31.1332 14.6146C28.1731 14.7557 28.0577 17.7857 28.0577 17.7857L23.5493 9.73117C22.4214 8.01584 20.5725 7.89743 19.4158 8.6033C18.2576 9.30917 18.0056 10.7406 18.0056 10.7406L17.0675 9.51865C16.3601 8.36194 14.247 8.22836 13.1692 8.88565C11.3795 9.97709 11.12 12.2389 12.2767 13.4882C12.2008 13.4062 11.3173 13.0996 9.83421 14.0043C8.67749 14.7102 8.31925 16.8217 8.96591 18.0194C9.61106 19.2186 9.70518 19.4054 9.70518 19.4054C9.70518 19.4054 8.70785 18.9348 7.13369 19.9928C6.00886 20.7488 5.60507 22.9924 6.31246 24.1491L10.1014 30.5383L15.3157 39.0589C18.382 43.4049 24.9185 44.9047 29.6683 42.019C32.9077 40.0516 35.1043 35.8954 34.7961 32.0396Z" fill="#F59F00"/>
<path d="M18.1453 10.9637L18.0071 10.7391C18.0117 10.7133 18.1726 9.84195 18.7935 9.13L19.4356 10.1622L21.3498 13.2407C22.5161 15.1204 23.6921 16.9942 24.8776 18.8619C24.9871 19.031 25.0249 19.2366 24.9828 19.4336C24.9407 19.6306 24.822 19.8028 24.6529 19.9123C24.4838 20.0218 24.2782 20.0597 24.0812 20.0176C23.8842 19.9754 23.712 19.8568 23.6025 19.6877C22.4128 17.8119 21.2328 15.9301 20.0625 14.0422L18.1453 10.9637ZM12.2023 13.4457C12.0894 13.4158 11.9749 13.3925 11.8593 13.3758C11.9764 13.3824 12.0919 13.4059 12.2023 13.4457Z" fill="#D67D00"/>
<path d="M12.2509 13.4594C12.6759 13.5838 13.1844 13.8419 13.7567 14.3519C13.8008 14.3899 13.9025 14.5037 14.0649 14.733C14.2187 14.9495 14.3968 15.2228 14.5992 15.5527C15.003 16.2054 15.4721 17.0251 15.9502 17.8813C16.2037 18.3306 16.4603 18.7921 16.7092 19.2444C17.3984 20.4862 18.0436 21.6505 18.4398 22.2607C18.5523 22.422 18.7231 22.5332 18.9162 22.5711C19.1092 22.6089 19.3094 22.5703 19.4745 22.4634C19.6396 22.3565 19.7568 22.1897 19.8013 21.9982C19.8459 21.8066 19.8144 21.6052 19.7133 21.4364C19.349 20.8717 18.7464 19.7879 18.0724 18.5704L17.2754 17.139C16.8297 16.3355 16.3681 15.541 15.891 14.7557C15.7045 14.4489 15.508 14.1482 15.3021 13.854C15.1464 13.6232 14.9668 13.4095 14.7662 13.2165C13.5579 12.1433 12.4437 11.8457 11.583 11.8381C11.6239 12.4393 11.8486 13.0115 12.2509 13.4594ZM9.63993 19.3811C9.48255 19.3463 9.32345 19.32 9.16328 19.3021C9.39401 19.3097 9.55796 19.3522 9.63993 19.3795M9.70065 19.3932L9.84334 19.4296C10.3382 19.5617 10.7936 19.7712 11.1002 20.0444C11.2571 20.181 11.4858 20.4619 11.7864 20.8869C12.0778 21.2983 12.3981 21.7977 12.7306 22.3336C13.0008 22.7677 13.2801 23.2307 13.5533 23.6846C13.9404 24.3237 14.3138 24.9415 14.6205 25.4151C14.7298 25.5842 14.9018 25.7029 15.0986 25.7452C15.2955 25.7875 15.5011 25.7498 15.6702 25.6405C15.8393 25.5312 15.958 25.3592 16.0003 25.1624C16.0426 24.9655 16.0049 24.7599 15.8956 24.5908C15.5481 24.0448 15.2085 23.4937 14.877 22.9377C14.6038 22.4838 14.3154 22.0072 14.0209 21.5336C13.7045 21.0172 13.3734 20.51 13.0281 20.0125C12.7215 19.5784 12.4042 19.1716 12.1097 18.909C11.5632 18.4232 10.8589 18.1287 10.235 17.9632C9.78224 17.8413 9.31632 17.7751 8.84753 17.7659C8.88295 17.8529 8.92242 17.9374 8.96594 18.0194C9.5276 19.0623 9.67332 19.3401 9.70065 19.3932Z" fill="#D67D00"/>
<path d="M43.4351 31.9242V17.526C43.2833 16.1598 42.2966 14.3231 39.7358 14.3231C36.7453 14.4673 36.6284 17.526 36.6284 17.526L32.0744 9.38959C30.9359 7.65907 29.0688 7.53763 27.9 8.25109C26.7311 8.96455 26.4746 10.4112 26.4746 10.4112L25.5258 9.17707C24.8123 8.00821 22.678 7.87159 21.5896 8.53647C19.7817 9.64006 19.5191 11.9246 20.688 13.1861C20.6121 13.1026 19.718 12.7945 18.2212 13.7083C17.0524 14.4217 16.6911 16.5545 17.3438 17.7644C17.9965 18.9727 18.0907 19.1624 18.0907 19.1624C18.0907 19.1624 17.0827 18.6888 15.4934 19.756C14.3564 20.5195 13.9496 22.7859 14.663 23.9548L18.4899 30.4062L23.7573 39.0133C26.8541 43.4033 33.4573 44.9183 38.2542 42.0037C41.5255 40.0167 43.7463 35.8179 43.4351 31.9242Z" fill="#FFC83D"/>
<path d="M26.4821 10.3854L26.5003 10.4173L28.4175 13.4988C29.5883 15.3857 30.7688 17.2665 31.959 19.1412C32.0131 19.2249 32.0832 19.2972 32.1653 19.3538C32.2473 19.4105 32.3397 19.4504 32.4372 19.4713C32.5346 19.4923 32.6353 19.4938 32.7334 19.4758C32.8314 19.4579 32.925 19.4208 33.0087 19.3666C33.0924 19.3125 33.1647 19.2424 33.2213 19.1604C33.278 19.0784 33.3179 18.986 33.3388 18.8885C33.3598 18.791 33.3613 18.6904 33.3433 18.5923C33.3254 18.4942 33.2883 18.4007 33.2341 18.3169C32.0481 16.4491 30.8721 14.5748 29.7063 12.6943C28.9853 11.5391 28.2976 10.4325 27.7906 9.6158L27.2745 8.78394C26.8866 9.24709 26.615 9.79613 26.4821 10.3854ZM20.568 13.1284C20.3694 13.0907 20.1675 13.0729 19.9653 13.0753C20.2446 13.0541 20.448 13.0905 20.568 13.1284ZM22.5216 14.1242C21.9946 13.6396 21.3498 13.3015 20.6515 13.1436C20.2662 12.6992 20.0346 12.1423 19.9911 11.5558C20.8989 11.5467 22.2621 11.8639 23.5296 12.9903C23.8423 13.2681 24.2385 13.8237 24.6301 14.4172C25.043 15.0457 25.5151 15.8168 25.9872 16.6031C26.3394 17.1906 26.6885 17.7841 27.0149 18.3382C27.5766 19.29 28.0699 20.1294 28.3948 20.6304C28.4489 20.7141 28.486 20.8077 28.5039 20.9057C28.5219 21.0038 28.5204 21.1044 28.4994 21.2019C28.4785 21.2994 28.4386 21.3918 28.3819 21.4738C28.3253 21.5559 28.2531 21.6259 28.1693 21.6801C28.0856 21.7342 27.992 21.7713 27.894 21.7893C27.7959 21.8072 27.6953 21.8057 27.5978 21.7848C27.5003 21.7638 27.4079 21.7239 27.3259 21.6673C27.2438 21.6106 27.1738 21.5384 27.1196 21.4546C26.6261 20.6645 26.1453 19.8664 25.6775 19.0608C25.3557 18.5128 25.0172 17.9375 24.6848 17.3834C24.2588 16.6644 23.8179 15.9544 23.3626 15.2536C22.9467 14.6221 22.6567 14.2457 22.5216 14.1242ZM18.2682 19.1944L18.0694 19.1185C17.8309 18.6651 17.5895 18.2132 17.3453 17.7629C17.2843 17.6488 17.2325 17.53 17.1904 17.4077C17.6959 17.4016 18.3031 17.5701 18.8405 17.7872C19.4899 18.0452 20.0925 18.4083 20.6241 18.8619C20.9308 19.1351 21.2541 19.5784 21.5577 20.0414C21.8734 20.5241 22.212 21.0994 22.549 21.6869C22.7539 22.0436 22.9573 22.4034 23.1546 22.7525C23.5535 23.4793 23.9721 24.1951 24.41 24.899C24.4641 24.9827 24.5012 25.0763 24.5192 25.1743C24.5372 25.2724 24.5356 25.373 24.5147 25.4705C24.4938 25.568 24.4538 25.6604 24.3972 25.7424C24.3406 25.8245 24.2683 25.8945 24.1846 25.9487C24.1009 26.0028 24.0073 26.0399 23.9092 26.0579C23.8112 26.0758 23.7105 26.0743 23.6131 26.0534C23.5156 26.0324 23.4232 25.9925 23.3412 25.9359C23.2591 25.8792 23.189 25.807 23.1349 25.7233C22.7524 25.1312 22.2803 24.2933 21.8036 23.4463L21.2329 22.4413C20.8989 21.86 20.5771 21.3165 20.2871 20.8733C19.9815 20.4128 19.7579 20.1203 19.6162 19.9959C19.2132 19.6574 18.758 19.3867 18.2682 19.1944ZM38.0462 20.0353C37.7851 19.5845 37.2583 18.6448 36.6284 17.5124C36.6828 16.8243 36.9128 16.1616 37.2963 15.5876C38.2041 17.224 39.0177 18.6843 39.3608 19.2733C39.4618 19.4476 39.4895 19.6549 39.4377 19.8497C39.3859 20.0444 39.2588 20.2105 39.0845 20.3116C38.9102 20.4126 38.7028 20.4403 38.5081 20.3885C38.3134 20.3367 38.1472 20.2096 38.0462 20.0353Z" fill="#D67D00"/>
<path d="M10.1895 5.27584L8.33751 2.76963C8.27063 2.67926 8.22615 2.5743 8.20773 2.46339C8.18931 2.35247 8.19747 2.23877 8.23156 2.13163C8.26564 2.02449 8.32467 1.92697 8.40378 1.84709C8.4829 1.7672 8.57985 1.70724 8.68665 1.67212L10.7511 1.03001C11.2065 0.888832 11.6619 1.26529 11.6316 1.75105L11.419 4.89938C11.3583 5.54301 10.569 5.79348 10.1895 5.27584ZM6.607 7.73955L3.78353 6.55551C3.68134 6.51397 3.59094 6.44793 3.5203 6.36321C3.44966 6.27849 3.40095 6.17769 3.37845 6.0697C3.35595 5.96172 3.36036 5.84985 3.3913 5.74397C3.42223 5.63809 3.47873 5.54145 3.55583 5.46255L5.02828 3.89902C5.10397 3.81914 5.19783 3.75873 5.30189 3.72293C5.40594 3.68713 5.5171 3.677 5.62592 3.69339C5.73473 3.70979 5.83797 3.75223 5.92685 3.8171C6.01574 3.88198 6.08763 3.96736 6.13642 4.066L7.48744 6.81357C7.74549 7.37523 7.18384 7.98243 6.607 7.73955ZM1.79191 12.1706L4.93568 11.7607C5.58083 11.6818 5.78576 10.8469 5.24991 10.4704L2.62378 8.70499C2.52827 8.64316 2.41941 8.60495 2.30621 8.59355C2.193 8.58214 2.07871 8.59785 1.97279 8.63939C1.86686 8.68093 1.77235 8.7471 1.69708 8.83242C1.62181 8.91774 1.56794 9.01976 1.53993 9.13003L1.02077 11.3038C0.993194 11.4147 0.993074 11.5307 1.02042 11.6416C1.04778 11.7526 1.10177 11.8552 1.17773 11.9406C1.25369 12.026 1.34933 12.0915 1.45635 12.1316C1.56337 12.1717 1.67856 12.1851 1.79191 12.1706Z" fill="#46A4FB"/>
</svg>
