<svg width="185" height="185" viewBox="0 0 185 185" fill="none" xmlns="http://www.w3.org/2000/svg">
<g clip-path="url(#clip0_27_2)">
<path d="M93 18.8733C8.01187 18.8733 6 114.138 6 132.993C6 151.861 44.9461 167.127 93 167.127C141.054 167.127 179.986 151.861 179.986 132.993C179.986 114.138 177.988 18.8733 93 18.8733Z" fill="#FCC21B"/>
<path d="M93.1906 202.566C69.4831 202.566 59.1383 187.477 58.6897 186.878C58.0054 185.967 57.7098 184.822 57.8678 183.693C58.0257 182.565 58.6243 181.545 59.5325 180.856C60.4381 180.173 61.5776 179.877 62.7013 180.032C63.825 180.188 64.8413 180.782 65.5274 181.686C65.9352 182.202 73.9419 193.974 93.4761 193.974C111.474 193.974 119.93 182.624 120.283 182.107C121.629 180.163 124.293 179.66 126.251 180.992C127.188 181.63 127.836 182.612 128.052 183.725C128.269 184.837 128.036 185.991 127.406 186.933C126.957 187.612 116.49 202.566 93.1906 202.566Z" fill="#2F2F2F"/>
<path fill-rule="evenodd" clip-rule="evenodd" d="M163.266 74.8931C163.225 73.8328 163.116 69.3605 162.939 68.3002C162.532 65.9077 162.287 65.7989 159.881 65.3775C121.207 58.5534 114.315 66.8184 92.9996 67.267C71.6846 66.832 64.779 58.5534 26.1184 65.3775C23.7123 65.8125 23.4676 65.9077 23.0598 68.3002C22.8967 69.3605 22.7743 73.8464 22.7335 74.8931C22.652 76.8506 23.0462 77.1089 24.9901 78.1556C26.6893 79.0528 27.4777 79.3247 27.4777 82.8999C27.4777 106.485 38.1896 113.771 52.5718 114.342C67.7832 114.94 80.1535 106.281 85.3056 93.0136C88.8535 83.865 90.947 79.2024 93.0132 78.9713C95.0659 79.2024 97.1593 83.8786 100.721 93.0136C105.873 106.295 118.243 114.94 133.455 114.342C147.85 113.771 158.549 106.485 158.549 82.8999C158.549 79.3247 159.337 79.0528 161.036 78.1556C162.953 77.1089 163.347 76.8506 163.266 74.8931ZM80.806 81.758C76.9454 93 72.3099 107.695 52.7621 106.961C38.312 106.431 34.1115 96.113 33.8124 82.4241C33.6085 73.5474 34.8727 71.4947 40.5006 70.3392C45.7749 69.2517 51.1852 68.7352 56.514 68.9391C62.9302 69.1974 70.2709 70.5839 75.1918 72.7725C81.4857 75.6 82.179 77.7886 80.806 81.758ZM152.173 82.4377C151.874 96.113 147.674 106.444 133.224 106.974C113.689 107.695 109.054 93 105.193 81.758C103.82 77.7886 104.514 75.5864 110.807 72.7725C115.728 70.5839 123.069 69.1838 129.485 68.9391C134.814 68.7352 140.224 69.2517 145.499 70.3392C151.127 71.4947 152.377 73.5609 152.173 82.4377Z" fill="#2F2F2F"/>
<path d="M130.737 120.133C125.353 114.655 113.88 121.588 93.0003 121.588C72.1203 121.588 60.6472 114.655 55.2641 120.133C53.9319 121.493 53.3882 124.687 54.7883 126.835C58.6217 132.707 72.8816 142.4 92.9868 142.74C113.092 142.413 127.365 132.707 131.185 126.835C132.613 124.687 132.069 121.493 130.737 120.133Z" fill="#ED6C30"/>
<mask id="mask0_27_2" style="mask-type:luminance" maskUnits="userSpaceOnUse" x="53" y="118" width="80" height="25">
<path d="M130.737 120.133C125.353 114.655 113.88 121.588 93.0003 121.588C72.1203 121.588 60.6472 114.655 55.2641 120.133C53.9319 121.493 53.3882 124.687 54.7883 126.835C58.6217 132.707 72.8816 142.4 92.9868 142.74C113.092 142.413 127.365 132.707 131.185 126.835C132.613 124.687 132.069 121.493 130.737 120.133" fill="white"/>
</mask>
<g mask="url(#mask0_27_2)">
<path d="M77.9522 120.065V127.542C77.9501 128.769 78.3921 129.956 79.1966 130.883C80.0012 131.81 81.1139 132.414 82.3293 132.585L87.1959 133.278C90.2545 133.713 93.0004 131.334 93.0004 128.235V120.065C93.0004 120.065 83.5664 120.962 77.9522 120.065ZM108.049 120.065V127.542C108.051 128.769 107.609 129.956 106.804 130.883C106 131.81 104.887 132.414 103.672 132.585L98.805 133.278C98.0832 133.38 97.3479 133.326 96.649 133.119C95.95 132.912 95.3035 132.558 94.7533 132.08C94.203 131.602 93.7618 131.011 93.4594 130.348C93.157 129.684 93.0005 128.964 93.0004 128.235V120.065C93.0004 120.065 102.434 120.962 108.049 120.065Z" fill="white"/>
</g>
<path d="M63.0937 98.4375C56.9901 98.4919 51.9876 92.6329 51.9196 85.3603C51.8517 78.0605 56.7454 72.1064 62.849 72.052C68.939 71.9976 73.9551 77.8565 74.0231 85.1564C74.0911 92.4426 69.1973 98.3831 63.0937 98.4375ZM123.056 98.4375C129.146 98.4239 134.08 92.5106 134.067 85.2379C134.053 77.9381 129.091 72.052 123.001 72.0656C116.898 72.0792 111.95 77.9925 111.963 85.2923C111.99 92.565 116.952 98.4511 123.056 98.4375Z" fill="#2F2F2F"/>
</g>
<defs>
<clipPath id="clip0_27_2">
<rect width="174" height="174" fill="white" transform="translate(6 6)"/>
</clipPath>
</defs>
</svg>
